<?xml version="1.0" standalone="no"?>
<!DOCTYPE svg PUBLIC "-//W3C//DTD SVG 20010904//EN"
 "http://www.w3.org/TR/2001/REC-SVG-20010904/DTD/svg10.dtd">
<svg version="1.0" xmlns="http://www.w3.org/2000/svg"
 width="702.000000pt" height="702.000000pt" viewBox="0 0 702.000000 702.000000"
 preserveAspectRatio="xMidYMid meet">
<metadata>
Created by potrace 1.11, written by Peter Selinger 2001-2013
</metadata>
<g transform="translate(0.000000,702.000000) scale(0.100000,-0.100000)"
fill="#000000" stroke="none">
<path d="M0 3510 l0 -3510 3510 0 3510 0 0 3510 0 3510 -3510 0 -3510 0 0
-3510z m2740 3069 c35 -290 124 -558 308 -924 271 -544 548 -893 978 -1237 94
-75 218 -183 276 -241 243 -240 656 -778 816 -1062 73 -131 80 -136 151 -129
67 7 297 -11 391 -31 140 -29 254 -90 351 -188 72 -72 109 -142 109 -208 0
-32 9 -62 30 -100 16 -30 30 -67 30 -83 0 -28 -1 -28 -37 -20 -21 4 -72 8
-113 8 -66 0 -83 -4 -140 -34 -120 -63 -352 -315 -545 -593 -126 -182 -244
-326 -375 -457 -262 -263 -461 -387 -732 -457 -102 -26 -109 -26 -502 -30
-512 -6 -606 6 -840 104 -86 36 -111 43 -114 32 -2 -8 -56 -63 -121 -124 -182
-172 -246 -242 -281 -307 -35 -66 -60 -145 -60 -194 0 -27 -4 -32 -31 -38 -94
-18 -229 7 -331 61 -87 47 -168 132 -212 222 l-32 66 -75 6 c-92 8 -187 38
-265 85 -74 44 -176 143 -169 164 3 10 -11 23 -47 40 -29 14 -57 34 -63 45 -5
11 -13 22 -17 25 -26 20 -36 114 -17 169 12 33 52 61 89 61 32 0 23 18 -12 25
-18 4 -55 19 -82 33 -132 72 -230 282 -212 457 5 54 34 157 50 184 3 5 50 -2
103 -15 603 -147 1322 -215 1653 -156 223 40 462 138 694 284 106 67 126 87
77 80 -16 -2 -62 3 -102 13 -102 23 -201 9 -239 -35 -19 -22 -103 -31 -122
-12 -7 7 -20 12 -30 12 -15 0 -14 5 8 48 29 56 25 75 -21 96 -34 16 -34 16
-19 51 30 72 9 100 -77 100 -57 0 -57 0 -52 27 7 34 -13 86 -36 92 -9 2 -38 7
-66 11 -69 10 -143 39 -200 80 l-49 34 30 11 c41 16 119 30 165 30 22 0 39 5
39 10 0 6 -9 10 -20 10 -55 0 -183 35 -255 70 -100 48 -227 158 -200 173 22
12 155 15 213 4 53 -9 56 7 5 24 -154 49 -325 181 -422 323 l-33 48 53 -7 c99
-12 263 -55 363 -96 54 -21 101 -37 104 -34 7 6 9 5 -70 48 -162 90 -332 241
-417 372 -82 125 -141 305 -141 429 l0 53 113 -56 c115 -58 286 -125 295 -116
3 3 -53 64 -124 137 -72 73 -149 161 -173 196 -90 133 -141 277 -155 434 l-7
78 60 -35 c75 -44 191 -91 288 -116 125 -32 138 -22 39 29 -121 62 -205 186
-251 367 -58 226 -35 447 66 646 l30 61 44 -45 c43 -45 103 -74 130 -63 11 4
15 23 15 73 0 320 120 640 312 831 58 59 206 168 214 159 2 -2 9 -42 14 -88z
m2946 -164 c-42 -109 -55 -495 -23 -660 21 -105 175 -705 252 -981 69 -249 79
-313 72 -477 -6 -153 -31 -263 -103 -445 -130 -331 -337 -627 -547 -784 -112
-83 -123 -81 -182 30 -157 290 -582 840 -856 1107 l-133 130 -4 219 c-5 248 5
337 49 471 28 84 89 208 108 219 5 3 30 -16 55 -42 45 -45 106 -154 120 -214
4 -16 11 -28 16 -28 6 0 10 86 10 230 0 253 11 337 58 445 32 76 100 180 144
223 l34 32 22 -62 c30 -85 52 -206 52 -284 0 -35 4 -64 10 -64 10 0 17 11 155
265 54 99 123 222 154 274 113 190 271 322 466 392 63 22 79 23 71 4z"/>
</g>
</svg>
