<svg xmlns="http://www.w3.org/2000/svg" width="335" height="77" viewBox="0 0 335 77" version="1.1" xml:space="preserve" stroke-linejoin="round"><style>.s0{fill:#808184;}</style><path d="M321.4 27.5l-0.9 0.1 0-8.9 -2.7 0 0.2-0.9 5.9 0 0 0.9 -2.5 0 0 8.7ZM332.9 17.6l0 0 1.9 9.8 -0.9 0.1 -1.4-7.1 0 0 -2.9 7.2 0 0 -3-7.2 0 0 -1.3 7.1 -0.9-0.1 2-9.8 0 0 3.3 7.8 3.2-7.8Z" fill="#808184"/><path d="M190.7 61.8l0-43.2 4.9-1 0 43.2 -4.9 1ZM169.8 60.8l-5.2 0.7 0-53.1 -16 0 1.2-5.2 35.2 0 0 5.2 -15.2 0 0 52.4ZM279.5 47.1c1.7 3.9 7.1 9.8 14.9 9.8 6.1 0 11.4-3.2 16-7l0 5.9c-3.7 3.7-10.4 6-15.6 6 -13 0-21.8-9.8-21.8-22.6 0-12.8 9.4-21.6 22-21.6 7.7 0 14.1 5 16.6 9.8l-32.1 19.7ZM209.6 8.3l4.9-2.7 0 13 11.4 0 0 4.9 -11.4 0 0 26c0 5.1 2.2 7.1 7.6 7.1 1.3 0 2.6 0 3.9-0.2l0 4.5c-1.3 0.3-2.9 0.5-4.4 0.5 -7.7 0-12-4.5-12-12l0-26 -5.6 0 1.2-4.9 4.5 0 0-10.3ZM304 26.2c-1.9-2.1-5.1-3.7-9-3.7 -9.9 0-17.1 7.3-17.1 16.8 0 1.1 0.1 2.4 0.3 3.4l25.8-16.5ZM232.5 61.5l0-60.5 4.9-1 0 23.8 0.2 0c2.3-3.8 7.1-6.1 12.2-6.1 8.1 0 15.7 3.2 15.7 14.9l0 28.3 -4.9 0.7 0-30.1c0-6.1-3.9-9.4-10.7-9.4 -4.6 0-12.5 3.4-12.5 11.5l0 27.3 -4.9 0.7ZM196.6 4.4l-3.9 4.4 -3.9-4.4 3.9-4.4 3.9 4.4Z" fill="#3198cc"/><path d="M108 18.6l4.8-1 16.9 30.7 14.8-30.7 4.9 1 -28.1 57.6 -4.7-1 10.4-21.8 -18.9-34.9ZM82.5 52.3c3.2 3 6 4.6 10.6 4.6 5 0 9.1-2.6 9.1-7.8 0-10.6-22.3-4.5-22.3-19.2 0-7.7 6.7-12.3 13.9-12.3 5.1 0 8.6 2.1 12.6 5l-2.8 3.9c-2.9-2.2-6.2-3.9-10.1-3.9 -4.8 0-8.8 2.4-8.8 7.1 0 10.6 22.3 3.6 22.3 19.2 0 8.8-6.8 12.9-15 12.9 -5.2 0-9.9-2.5-13.2-6.4l3.7-3.1ZM57.8 56.9c6 0 10.2-4.5 10.2-10.4 0-6.2-4.3-10.5-10.3-10.5 -6.5 0-11.3 4.4-11.3 11.1 0 6.2 5.9 9.8 11.5 9.8ZM6.6 47.1c1.7 3.9 7.1 9.8 15 9.8 6.1 0 11.4-3.2 16-7l0 5.9c-3.7 3.7-10.4 6-15.6 6 -13 0-21.8-9.8-21.8-22.6 0-12.8 9.4-21.6 22-21.6 7.7 0 14.1 5 16.6 9.8l-32.1 19.7ZM31 26.2c-1.9-2.1-5.1-3.7-9-3.7 -9.9 0-17.1 7.3-17.1 16.8 0 1.1 0.1 2.4 0.3 3.4l25.8-16.5ZM47.4 20.2c3.9-1.6 8.1-2.5 12.3-2.5 6.6 0 13.2 3.4 13.2 10.7l0 32.5 -4.9 1 0-5.3 -0.2 0c-1.7 3.1-5.4 5.3-10.3 5.3 -8.6 0-16-5.5-16-14.7 0-9.3 6.1-16 15.5-16 4.2 0 8.2 2.4 11.1 4.9l0-7.1c0-3.5-4.3-6.5-9.9-6.5 -4 0-8.6 2.1-12.3 3.4l1.6-5.7Z" fill="#808184"/></svg>
